<svg width="472" height="385" viewBox="0 0 472 385" fill="none" xmlns="http://www.w3.org/2000/svg">
    <path d="M182.645 119.902C178.786 135.491 172.194 151.402 158.929 160.482C146.629 168.92 129.908 169.884 116.161 164.018C102.414 158.152 91.8019 146.098 86.4157 132.196C82.396 121.75 81.5921 108.732 89.2294 100.455C93.249 96.116 98.8764 93.7856 104.424 91.616L140.439 77.232C141.24 76.7399 142.196 76.5659 143.119 76.7444C144.042 76.923 144.864 77.4411 145.424 78.1963L182.967 113.714" fill="#32142A"/>
    <path d="M143.655 84.4644C139.625 88.4649 134.768 91.5366 129.425 93.4644C124.071 95.3163 118.509 96.5038 112.865 97.0001C110.614 97.2411 108.363 97.4822 106.433 98.5269C104.793 99.5365 103.438 100.947 102.494 102.625C100.657 105.889 99.6887 109.568 99.6804 113.313C99.2826 122.064 102.083 130.661 107.559 137.5C114.553 146.259 125.084 152.527 136.339 153.491C147.835 154.455 160.055 148.75 165.361 138.304C166.406 136.214 167.049 129.223 163.753 136.938C160.055 145.536 148.8 149.795 139.555 149.955C129.024 150.116 118.894 144.652 111.98 137.018C108.524 133.241 103.78 128.741 102.494 123.839C101.931 121.358 101.608 118.829 101.529 116.286C101.313 113.979 101.422 111.652 101.851 109.375C102.655 106 106.916 102.143 110.051 101.098C112.061 100.455 114.231 100.536 116.322 100.455C123.557 100.134 130.471 97.0804 136.339 92.9019C137.786 91.8572 139.233 90.7322 140.68 89.6072C141.321 89.1279 141.889 88.5597 142.369 87.9197C142.591 87.5767 142.722 87.1829 142.75 86.7753C142.778 86.3677 142.702 85.9596 142.529 85.5894C142.333 85.2746 142.022 85.0484 141.662 84.9585C141.302 84.8685 140.921 84.9219 140.6 85.1072C140.52 85.1072 140.52 85.1876 140.439 85.1876L143.655 84.4644Z" fill="#7F4341"/>
    <path d="M115.598 119.58C115.196 116.366 114.553 112.268 116.884 109.616C119.216 106.964 123.316 106.804 126.612 106.884C130.712 107.045 137.625 105.277 141.565 103.268C144.941 101.58 145.584 103.429 148.398 101.098C150.167 99.5714 147.594 97.0804 145.825 98.5268C142.851 101.098 139.314 103.509 135.375 104.071C131.114 104.714 126.612 102.866 122.351 103.348C118.814 103.75 115.276 105.196 113.267 108.33C111.096 111.625 114.231 117.089 114.714 120.786C114.718 121.253 114.906 121.701 115.236 122.031C115.567 122.362 116.015 122.549 116.482 122.554C117.447 122.634 115.759 120.545 115.598 119.58Z" fill="#7F4341"/>
    <path d="M159.331 128.58C163.11 124.964 163.833 124.321 166.245 119.661C166.467 119.24 166.524 118.752 166.405 118.291C166.286 117.83 166 117.431 165.602 117.17C164.798 116.688 164.878 116.286 164.396 117.17C162.175 121.655 159.243 125.753 155.714 129.304C154.99 129.946 150.729 132.036 151.453 132.679C152.176 133.321 156.357 131.152 157.08 130.509L159.331 128.58Z" fill="#7F4341"/>
    <path d="M162.306 275.393C169.461 278.929 177.661 280.134 185.539 279.571C191.649 279.17 201.296 278.446 204.029 271.857C209.818 257.795 215.606 242.366 221.474 227.982C223.323 223.482 218.42 220.67 214.963 219.223C208.823 216.86 202.219 215.952 195.669 216.571C190.523 216.973 181.278 218.661 178.304 223.562L176.776 226.616L162.306 275.393Z" fill="#E48929"/>
    <path d="M167.773 277.643L168.657 277.723C173.32 278.045 196.151 279.25 204.431 270.893L205.476 268.241L167.773 277.643Z" fill="#C05929"/>
    <path d="M216.731 237.625C218.098 238.027 219.384 238.429 220.671 238.911L221.153 239.071C221.41 239.174 221.653 239.309 221.876 239.473C222.118 239.634 222.359 239.714 222.6 239.875L222.922 240.116C223.324 240.357 222.68 239.955 223.002 240.196C223.832 240.845 224.482 241.695 224.89 242.665C225.298 243.636 225.451 244.695 225.333 245.741C224.931 250.562 220.51 253.616 216.008 254.339C215.525 254.42 216.329 254.339 215.847 254.339L215.284 254.42H213.194C213.033 254.42 212.31 254.339 212.551 254.339C211.2 254.183 209.891 253.775 208.692 253.134C208.1 252.807 207.406 252.717 206.75 252.881C206.094 253.045 205.524 253.451 205.155 254.018C204.981 254.312 204.868 254.638 204.823 254.977C204.777 255.315 204.8 255.66 204.89 255.989C204.98 256.319 205.135 256.627 205.346 256.896C205.557 257.165 205.82 257.388 206.12 257.553C209.047 259.049 212.332 259.705 215.609 259.45C218.887 259.194 222.03 258.037 224.69 256.107C227.584 253.937 229.835 250.884 230.318 247.268C230.638 245.539 230.566 243.761 230.107 242.064C229.647 240.368 228.813 238.796 227.665 237.464C225.253 234.652 221.475 233.527 218.018 232.482C214.882 231.679 213.516 236.661 216.731 237.625Z" fill="#E48929"/>
    <path d="M172.676 244.134C172.991 246.312 173.745 248.404 174.892 250.282C176.039 252.161 177.555 253.787 179.349 255.062C182.886 257.714 188.996 259.321 193.337 259.723C191.89 261.812 187.71 262.696 185.218 263.339C182.716 264.036 180.067 264.008 177.58 263.259C173.882 262.054 171.149 258.839 169.782 255.223C168.553 251.549 168.276 247.623 168.978 243.812" fill="#C05929"/>
    <path d="M139.716 82.3749C134.249 55.3749 159.492 29.3392 184.253 23.0713C233.855 10.616 240.045 84.4642 197.437 110.982C188.433 116.527 175.731 105.598 165.522 102.786C155.312 99.9731 146.227 92.8214 141.886 83.1785" fill="#32142A"/>
    <path d="M176.937 31.1875C161.1 33.4375 161.582 4.02678 176.696 1.05357C182.725 -0.151791 189.8 1.9375 193.82 6.59821C196.312 9.49107 200.974 27.9732 194.463 28.7768C188.594 29.5 182.725 30.3036 176.937 31.1875Z" fill="#32142A"/>
    <path d="M136.42 107.527C136.018 108.25 143.575 104.553 143.816 105.277C145.665 110.178 149.765 113.473 154.267 116.045C159.171 118.857 167.933 126.491 173.561 126.491C186.022 126.33 198.241 111.464 206.12 101.821C214.48 91.616 217.053 79.5624 219.304 66.6249C219.786 63.8124 219.867 60.6785 218.178 58.4285C217.187 57.21 215.92 56.2458 214.48 55.616C200.974 48.7856 184.092 52.7231 171.712 61.4017C160.618 69.2767 152.498 80.366 144.861 91.616C142.61 94.991 141.082 99.491 136.42 107.527Z" fill="#FFC9A0"/>
    <path d="M147.594 91.7768C140.761 91.1339 136.018 82.9375 138.269 76.5089C140.52 70.0804 148.72 66.625 155.151 68.9554C161.582 71.2857 165.602 78.6786 164.637 85.5089" fill="#FFC9A0"/>
    <path d="M125.888 121.75L142.931 98.6072C143.261 98.0193 143.81 97.5859 144.459 97.4019C144.786 97.423 145.106 97.5126 145.397 97.6649C145.687 97.8171 145.943 98.0287 146.147 98.2858C150.167 101.982 154.508 106.402 154.106 111.866C153.945 114.518 152.578 116.929 151.292 119.259L141.404 136.938L125.888 121.75Z" fill="#FFC9A0"/>
    <path d="M121.145 113.714C70.1764 136.455 42.6823 189.813 29.6588 241.482C24.6745 261.089 22.3431 280.616 20.7353 300.705C20.4941 303.679 18.7254 349.804 17.198 349.804C59.8862 349.884 83.2804 343.938 125.888 344.018C116.723 265.509 130.069 201.625 146.629 137.018L121.145 113.714Z" fill="#FAC7B7"/>
    <path d="M221.716 57.2231C221.423 56.3578 221.046 55.5234 220.59 54.7321C215.767 45.7321 204.19 43.1606 194.784 44.9285C183.127 47.1785 172.918 54.7321 163.914 63.0892C160.376 66.3838 154.025 71.6071 153.222 74.1785C152.418 76.7499 169.863 83.4999 173.561 83.9821C183.288 85.3481 193.418 84.0624 202.824 81.2499C207.647 79.8035 214.882 78.5178 218.982 75.4642C219.947 74.6606 224.047 63.7321 221.716 57.2231Z" fill="#32142A"/>
    <path d="M145.343 293.795C148.88 285.277 157.884 280.134 166.888 277.884C175.892 275.634 185.298 275.473 194.302 273.223C203.306 270.973 212.39 265.991 216.008 257.554C217.455 254.179 216.892 248.795 213.194 248.554C211.798 248.603 210.451 249.08 209.335 249.92C204.753 252.732 200.573 256.188 195.829 258.679C191.086 261.17 185.539 262.777 180.314 261.491C175.088 260.205 170.506 255.545 170.667 250.161C170.92 247.848 171.378 245.563 172.033 243.33C172.435 241.884 167.049 244.857 165.602 246.464C164.155 248.072 162.627 249.679 161.984 251.768C158.045 264.464 145.504 272.098 133.927 278.607" fill="#FFC9A0"/>
    <path d="M146.227 86.3124C143.816 84.1427 141.243 80.2052 143.092 76.9106C143.98 75.4702 145.288 74.3361 146.841 73.6609C148.393 72.9857 150.115 72.8018 151.774 73.1338C152.9 73.3749 153.382 71.607 152.257 71.366C148.237 70.6427 143.574 72.2499 141.565 76.0267C139.314 80.0445 141.886 84.866 145.022 87.5981C145.825 88.4017 147.112 87.116 146.227 86.3124Z" fill="#32142A"/>
    <path d="M149.041 82.6965C148.8 82.375 148.559 81.9732 148.318 81.6518C148.194 81.4459 148.087 81.231 147.996 81.009C147.916 80.8483 147.835 80.7679 147.835 80.6072C147.744 80.404 147.69 80.1864 147.674 79.9643C147.755 80.125 147.674 79.884 147.674 79.884V79.2411C147.669 79.1975 147.674 79.1532 147.688 79.1116C147.702 79.0699 147.724 79.0318 147.755 79C147.755 78.9197 147.755 78.9197 147.835 78.8393C147.916 78.759 147.916 78.6786 147.996 78.5983C148.076 78.5179 148.157 78.3572 148.076 78.5179L148.237 78.3572L148.318 78.2768C148.398 78.1965 148.478 78.1965 148.559 78.1161C148.398 78.1965 148.559 78.1161 148.639 78.1161C148.72 78.1161 148.8 78.0357 148.88 78.0357H150.327L150.569 78.1161L151.131 78.2768C151.366 78.3621 151.625 78.3507 151.851 78.2452C152.077 78.1397 152.252 77.9488 152.337 77.7143C152.422 77.4799 152.411 77.2212 152.306 76.9951C152.2 76.7691 152.009 76.5942 151.774 76.509C151.694 76.509 151.694 76.509 151.614 76.4286C150.656 76.1098 149.636 76.0271 148.639 76.1875C148.154 76.2598 147.691 76.4422 147.287 76.7208C146.883 76.9993 146.548 77.3667 146.308 77.7947C146.069 78.2483 145.924 78.7456 145.883 79.2566C145.841 79.7676 145.904 80.2817 146.067 80.7679C146.364 81.8058 146.885 82.7659 147.594 83.5804C147.744 83.7675 147.957 83.8947 148.193 83.9389C148.429 83.9831 148.672 83.9415 148.88 83.8215C149.002 83.6636 149.08 83.4771 149.108 83.2801C149.137 83.083 149.113 82.882 149.041 82.6965Z" fill="#32142A"/>
    <path d="M199.286 263.5C201.778 261.973 204.11 260.366 206.522 258.679C210.059 256.188 213.837 253.857 216.169 250.08C217.053 248.634 214.802 247.348 213.918 248.795C211.747 252.25 208.049 254.42 204.833 256.67C202.582 258.277 200.251 259.804 197.92 261.25C196.553 262.134 197.839 264.384 199.286 263.5Z" fill="#EFB086"/>
    <path d="M204.833 266.152C207.447 264.54 209.921 262.712 212.229 260.687C214.4 258.679 216.41 256.348 218.42 254.098C219.545 252.893 217.696 251.045 216.571 252.25C214.561 254.42 212.631 256.67 210.461 258.679C208.32 260.602 206.005 262.324 203.547 263.821C202.18 264.786 203.467 267.036 204.833 266.152Z" fill="#EFB086"/>
    <path d="M212.792 228.545C211.586 228.625 210.461 228.545 209.255 228.545C206.682 228.545 204.11 228.464 201.537 228.223C196.241 227.839 191.007 226.842 185.941 225.25C184.494 224.768 182.725 223.723 183.208 222.357C183.529 221.554 184.494 221.152 185.378 220.83C194.865 217.777 200.251 217.696 213.757 221.795C215.767 222.438 220.59 224.768 218.5 226.777C218.016 227.22 217.439 227.549 216.812 227.741C215.518 228.201 214.164 228.471 212.792 228.545Z" fill="#32142A"/>
    <path d="M189.237 88.0001C193.659 86.2322 199.045 86.3929 203.708 87.1965C203.987 87.2922 204.283 87.3305 204.578 87.3091C204.873 87.2877 205.16 87.2071 205.423 87.072C205.685 86.9369 205.918 86.7502 206.107 86.5231C206.296 86.2959 206.437 86.033 206.522 85.7501C207.084 84.1429 205.396 83.0983 204.029 82.6162C200.01 81.2501 195.588 81.6519 191.569 82.8572C189.531 83.5141 187.564 84.3757 185.7 85.4287C184.494 86.1519 181.359 87.5983 181.6 89.3661C181.922 91.7769 187.629 88.6429 188.674 88.1608L189.237 88.0001Z" fill="#32142A"/>
    <path d="M172.516 75.3037C181.359 75.7858 186.424 76.0269 194.945 73.2947C201.354 71.3306 207.199 67.8584 211.988 63.1697C214.561 60.5179 215.365 54.4108 216.169 50.7144C216.651 48.4644 214.4 52.3215 213.274 54.9733C210.943 60.5983 207.647 62.8483 202.663 65.8215C196.887 69.3667 190.363 71.5131 183.61 72.0894C178.465 72.4108 174.043 72.9733 164.637 72.8929C162.306 72.8929 166.004 74.9019 168.335 75.0626L172.516 75.3037Z" fill="#7F4341"/>
    <path d="M157 55.6161C158.769 51.6786 161.743 48.625 165.12 45.9732C170.425 41.7038 176.296 38.1884 182.565 35.5268C185.62 34.2411 188.996 32.7143 192.292 32.1518C195.427 31.5893 198.884 33.5179 201.618 34.8036C203.036 35.3381 204.385 36.0395 205.637 36.8929C206.29 37.388 206.792 38.0561 207.084 38.8214C207.406 40.3482 205.959 40.4286 204.753 40.5089C198.804 40.75 192.533 40.9107 186.665 42.3571C180.796 43.8036 175.973 47.1786 171.229 50.9554C170.425 51.5982 168.094 54.4107 168.737 55.0536C169.38 55.6964 174.284 50.7946 175.088 50.1518C178.187 47.5281 181.802 45.5843 185.7 44.4464C191.006 42.6786 197.598 44.4464 203.145 44.2054C206.039 44.0446 213.435 44.8482 212.631 43.2411C211.827 41.6339 208.773 34.4018 205.798 32.875C202.78 31.261 199.6 29.9682 196.312 29.0179C194.932 28.6028 193.484 28.4662 192.051 28.6161C190.798 28.8521 189.562 29.1742 188.353 29.5804C181.466 31.6792 175.088 35.1813 169.622 39.8661C163.351 45.3304 157.161 50.875 153.784 58.5893C152.739 60.6786 156.035 57.7857 157 55.6161Z" fill="#7F4341"/>
    <path d="M179.349 63.3304C188.112 65.7411 196.794 63.25 202.341 55.8572C202.904 55.0536 205.074 50.7947 204.673 50.7947C204.271 50.7947 203.065 52.9643 202.502 53.7679C197.92 59.875 186.745 62.9286 179.51 62.125C173.078 61.4822 177.018 62.7679 179.349 63.3304Z" fill="#7F4341"/>
    <path d="M154.427 263.821L156.437 261.571L164.637 278.527L161.02 279.812L154.427 263.821Z" fill="#EFB086"/>
    <path d="M153.222 115.563L143.816 105.357L149.202 123.116L153.222 115.563Z" fill="#EFB086"/>
    <path d="M195.267 92.1787C193.096 92.3394 190.363 94.0269 190.363 96.0358C190.363 98.6876 193.9 97.5626 195.106 96.6787C195.99 96.0358 197.598 95.0715 197.678 93.8662C197.759 92.6608 196.633 92.0983 195.267 92.1787Z" fill="#32142A"/>
    <path d="M205.718 98.9286C203.788 99.8929 201.859 102.464 202.663 104.393C203.708 106.884 206.522 104.473 207.325 103.107C207.888 102.223 209.014 100.696 208.612 99.4911C208.21 98.2858 206.923 98.2858 205.718 98.9286Z" fill="#32142A"/>
    <path d="M17.198 322.964C18.0823 313.241 16.0725 301.348 15.9921 291.625C15.9117 283.75 15.4294 277.804 17.9215 270.411C18.1169 269.877 18.5087 269.439 19.0168 269.185C19.5249 268.931 20.1109 268.881 20.6549 269.045C20.9682 269.159 21.2528 269.341 21.4888 269.577C21.7248 269.813 21.9066 270.097 22.0215 270.411C24.3529 277.241 28.2921 284.232 29.8196 291.384C29.8357 291.513 29.8784 291.637 29.9449 291.748C30.0115 291.86 30.1004 291.957 30.2062 292.032C30.3119 292.108 30.4322 292.16 30.5594 292.187C30.6865 292.214 30.8179 292.214 30.9451 292.187C31.111 292.152 31.2649 292.074 31.3917 291.961C31.5185 291.849 31.6139 291.705 31.6686 291.545C32.9549 287.125 33.1157 282.384 33.6784 277.804C34.0024 274.496 34.8716 271.265 36.251 268.241C36.7118 267.359 37.4975 266.689 38.4423 266.375C39.3871 266.06 40.4172 266.124 41.3157 266.554C41.7536 266.752 42.1447 267.041 42.4633 267.401C42.7819 267.761 43.0209 268.184 43.1647 268.643L46.7823 278.446C47.4424 280.289 48.2212 282.088 49.1137 283.83C50.7079 286.373 52.7508 288.606 55.1431 290.42C66.3176 299.661 81.0294 303.839 95.5 304.482C109.971 305.125 124.441 302.312 138.429 298.696L125.808 323.446L126.853 386.366H17.0372L17.198 322.964Z" fill="#E48929"/>
    <path d="M53.8568 322.804C49.6764 313.482 44.2902 297.089 41.9588 288.411C36.8941 269.687 32.8745 250.482 34.3215 231.116L38.1 224.125C52.0882 255.062 67.6039 287.768 96.3039 305.929C97.6706 306.812 99.1176 307.696 99.9215 309.062C100.645 310.268 123.476 308.259 123.557 309.705C123.959 314.205 125.004 318.304 125.969 323.366L53.8568 322.804Z" fill="#E48929"/>
    <path d="M84.1647 202.991C86.898 181.536 98.5549 160.804 99.3588 139.188C99.4392 136.616 99.3588 133.964 97.8314 131.875C93.8922 126.33 85.1294 129.947 79.9843 134.286C51.7667 157.83 33.598 193.83 34.1608 230.554C34.3216 240.759 35.849 250.884 37.8588 260.929C41.1549 277.563 46.0588 294.759 58.1176 306.732C73.2314 321.679 96.8667 325.054 117.608 320.714C138.349 316.375 157.08 305.286 175.329 294.438C166.647 272.982 157.965 251.58 149.282 230.232C138.671 236.741 127.576 243.491 115.196 244.697C100.002 246.143 87.3 236.982 84.4863 221.875C83.3751 215.638 83.2665 209.263 84.1647 202.991Z" fill="#FAC7B7"/>
    <path d="M87.3 132.518C90.4353 131.393 93.8921 131.152 96.7059 133.161C99.198 134.848 100.404 137.982 100.645 140.875C100.794 142.933 100.577 145.001 100.002 146.982C99.906 147.313 99.9453 147.667 100.111 147.969C100.277 148.27 100.556 148.493 100.886 148.589C101.217 148.685 101.572 148.646 101.873 148.48C102.175 148.314 102.398 148.036 102.494 147.705C103.692 143.735 103.464 139.472 101.851 135.652C101.147 133.993 100.032 132.539 98.612 131.429C97.1917 130.318 95.5122 129.587 93.7314 129.304C91.2903 128.968 88.8038 129.244 86.4961 130.107C85.049 130.589 85.6922 133.08 87.3 132.518Z" fill="#F9A793"/>
    <path d="M40.6725 273.545C39.7882 270.009 71.9451 276.116 74.598 276.759C80.2254 278.045 81.7529 281.902 83.3607 287.045C86.898 298.696 90.596 310.348 93.5705 322.161C93.6509 322.08 53.2137 323.527 40.6725 273.545Z" fill="#F9B7A5"/>
    <path d="M148.8 229.027C143.916 231.943 138.808 234.469 133.525 236.58C128.672 238.653 123.674 240.372 118.573 241.723C113.735 243.103 108.603 243.075 103.78 241.643C98.3137 240.036 93.0882 236.821 90.1137 231.92C86.9589 226.478 85.321 220.29 85.3706 214C85.3706 213.659 85.2351 213.332 84.9938 213.091C84.7526 212.85 84.4254 212.714 84.0843 212.714C83.7432 212.714 83.416 212.85 83.1748 213.091C82.9335 213.332 82.798 213.659 82.798 214C82.784 219.871 84.1034 225.668 86.6568 230.955C89.3902 236.58 93.9725 240.438 99.6804 242.929C105.025 245.315 110.97 246.015 116.724 244.938C121.832 243.744 126.833 242.131 131.676 240.116C137.958 237.781 144.013 234.876 149.765 231.438L148.8 229.027Z" fill="#F9A793"/>
    <path d="M200.09 97.3214C199.769 97.5625 199.447 97.8036 199.206 97.9643C195.91 100.777 193.096 104.393 190.122 107.607C189.607 108.035 189.264 108.634 189.157 109.295C189.157 110.098 189.88 110.741 190.604 111.223C193.176 113.071 196.151 115 199.608 112.509C200.955 111.474 201.941 110.04 202.422 108.411C203.529 104.953 204.125 101.353 204.19 97.7232C204.271 94.9107 201.778 96.1964 200.09 97.3214Z" fill="#E48929"/>
    <path d="M195.347 357.839C195.347 357.839 214.561 206.286 355.89 194.634L363.929 182.018L411.361 178L417.471 194.634C417.471 194.634 479.051 230.473 471.012 302.071L403.322 330.036V360.652L195.347 357.839Z" fill="#39B55D"/>
    <path d="M411.441 178C411.441 178 406.859 137.339 406.216 133.563C404.849 126.25 403.643 113.313 400.588 106.563C395.926 96.2768 383.224 91.0536 372.29 93.8661C359.829 97.0001 351.147 109.696 346.324 120.866C341.822 131.232 331.773 162.571 341.822 172.134C349.298 179.286 364.492 174.866 372.29 170.446L370.441 181.616L411.441 178Z" fill="#B26D55"/>
    <path d="M401.875 134.527C402.116 131.393 405.09 129.304 407.984 128.098C410.044 127.144 412.312 126.73 414.576 126.893C415.7 126.984 416.787 127.337 417.75 127.923C418.713 128.509 419.526 129.312 420.123 130.268C420.749 131.452 421.027 132.789 420.927 134.125C420.767 138.143 418.275 141.679 415.782 144.893C412.245 149.634 408.386 154.616 402.839 156.705" fill="#B26D55"/>
    <path d="M403.322 330.036C402.116 309.223 400.91 288.33 403.08 267.518C405.251 246.705 406.135 212.071 417.471 194.634C432.825 203.955 454.773 227.661 461.606 244.294C468.278 260.446 473.665 271.857 471.012 302.071L403.322 330.036Z" fill="#39B55D"/>
    <path d="M355.89 194.634L348.253 206.446L344.073 195.92C343.992 196 352.273 194.634 355.89 194.634Z" fill="#194429"/>
    <path d="M342.867 142.804C341.586 146.794 340.776 150.92 340.455 155.098C340.36 156.148 340.554 157.204 341.018 158.152C341.106 158.346 341.245 158.512 341.42 158.634C341.627 158.7 341.845 158.727 342.063 158.714C345.037 158.554 348.092 158.393 350.825 157.187C351.305 157.016 351.723 156.709 352.031 156.304C352.187 156.04 352.289 155.747 352.33 155.444C352.371 155.14 352.352 154.832 352.273 154.536C351.469 149.473 347.851 146.018 345.359 141.116C345.208 140.884 344.978 140.715 344.711 140.641C344.445 140.567 344.16 140.593 343.912 140.714C343.816 140.764 343.731 140.832 343.662 140.914C343.593 140.997 343.541 141.093 343.51 141.196C343.269 141.679 343.108 142.241 342.867 142.804Z" fill="#C05929"/>
    <path d="M471.012 302.072C470.5 322.87 467.256 343.511 461.365 363.464C457.747 376 454.129 399.304 443.437 407.982C433.388 416.018 417.551 409.67 407.18 405.571C393.514 400.188 379.686 396.17 366.02 391.107C348.253 384.518 321.482 380.661 301.867 382.348C292.3 383.232 288.361 376.241 278.875 377.205C277.186 377.366 275.257 377.527 273.89 376.563C272.849 375.742 272.045 374.661 271.559 373.429L266.896 364.188C266.098 362.911 265.68 361.434 265.69 359.929C265.851 357.598 267.861 355.83 269.871 354.545C280.161 347.634 292.461 344.42 304.761 342.732C339.329 337.991 373.737 345.786 404.126 362.902C404.447 351.813 404.769 344.982 405.412 329.152L471.012 302.072Z" fill="#B26D55"/>
    <path d="M329.843 373.75C334.667 375.437 347.369 375.116 350.665 378.25C354.122 381.464 324.618 382.67 321 383.071C292.541 385.723 264.082 387.411 235.543 388.536C208.371 389.58 179.188 392.955 152.257 388.857C141.243 387.17 137.465 382.428 136.902 371.42C135.616 344.5 134.41 317.5 133.123 290.58C133.012 287.964 133.856 285.397 135.497 283.357C137.139 281.317 139.467 279.943 142.047 279.491C189.162 271.703 236.938 268.634 284.663 270.33C286.398 270.385 288.055 271.067 289.326 272.249C290.597 273.43 291.396 275.033 291.576 276.759C292.863 290.259 297.686 321.598 298.651 325.214C301.384 335.42 304.278 345.946 309.745 355.027C314.569 363.223 317.865 369.652 329.843 373.75Z" fill="#194429"/>
    <path d="M404.608 134.848C406.221 134.358 407.783 133.712 409.271 132.92C410.637 132.357 412.647 131.473 414.094 132.357C414.978 132.839 414.898 133.884 414.818 134.768C414.689 135.775 414.474 136.77 414.175 137.741C413.599 139.682 412.731 141.525 411.602 143.205C410.238 145.137 408.377 146.664 406.216 147.625C405.171 148.107 406.055 149.634 407.1 149.152C411.522 147.143 414.416 142.964 415.782 138.384C416.1 137.249 416.342 136.095 416.506 134.928C416.728 133.798 416.528 132.626 415.943 131.634C414.657 129.866 412.245 129.946 410.396 130.509C408.226 131.152 406.216 132.437 404.045 133C403.933 133.034 403.828 133.091 403.738 133.167C403.648 133.243 403.575 133.336 403.522 133.442C403.47 133.547 403.439 133.662 403.432 133.779C403.425 133.897 403.442 134.014 403.482 134.125C403.556 134.358 403.709 134.558 403.914 134.69C404.12 134.822 404.365 134.878 404.608 134.848Z" fill="#32142A"/>
    <path d="M403.643 139.348C404.219 139.169 404.783 138.955 405.331 138.705C405.634 138.621 405.93 138.514 406.216 138.384C406.376 138.304 406.537 138.304 406.698 138.223L406.859 138.143C406.859 138.143 407.1 138.063 406.939 138.143H407.502C407.582 138.143 407.743 138.223 407.582 138.143C407.422 138.063 407.663 138.223 407.663 138.223L407.823 138.384L407.904 138.545C407.904 138.625 407.984 138.705 407.984 138.786C407.823 138.545 407.984 138.866 407.984 138.866V138.946C407.904 138.786 407.984 138.786 407.984 138.946V139.268C407.984 139.348 407.904 139.429 407.984 139.188V139.268C407.988 139.38 407.96 139.492 407.904 139.589L407.823 139.75C407.73 139.945 407.622 140.133 407.502 140.313L407.341 140.634L407.261 140.714C407.1 140.875 407.422 140.554 407.261 140.795C406.959 141.161 406.637 141.51 406.296 141.839C406.126 142.02 405.937 142.181 405.733 142.321L405.653 142.402L405.573 142.482L405.251 142.723C404.867 142.994 404.464 143.235 404.045 143.446L403.723 143.607C403.643 143.607 403.563 143.688 403.723 143.607L403.563 143.688C403.402 143.768 403.241 143.768 403.08 143.848C402.964 143.88 402.855 143.934 402.76 144.008C402.665 144.081 402.585 144.173 402.526 144.278C402.466 144.382 402.427 144.497 402.412 144.617C402.397 144.736 402.406 144.857 402.437 144.973C402.469 145.089 402.523 145.198 402.597 145.293C402.671 145.388 402.762 145.468 402.867 145.528C402.971 145.587 403.087 145.626 403.206 145.641C403.325 145.656 403.447 145.648 403.563 145.616C404.464 145.38 405.31 144.971 406.055 144.411C407.004 143.772 407.868 143.016 408.627 142.161C409.374 141.34 409.826 140.294 409.914 139.188C409.902 138.554 409.671 137.944 409.261 137.46C408.851 136.977 408.286 136.651 407.663 136.536C406.135 136.375 404.688 137.339 403.241 137.661C403.125 137.692 403.016 137.747 402.921 137.82C402.826 137.894 402.746 137.986 402.686 138.09C402.627 138.195 402.588 138.31 402.573 138.429C402.558 138.548 402.566 138.67 402.598 138.786C402.598 139.268 403.08 139.509 403.643 139.348Z" fill="#32142A"/>
    <path d="M354.282 216.411C358.865 207.411 363.608 198.571 368.592 189.732C369.396 188.286 367.145 187 366.341 188.446C361.437 197.205 356.694 206.125 352.031 215.125C351.308 216.652 353.559 217.937 354.282 216.411Z" fill="#194429"/>
    <path d="M389.173 218.179L392.308 185.393C392.469 183.705 389.896 183.786 389.735 185.393L386.6 218.259C386.439 219.866 389.012 219.866 389.173 218.179Z" fill="#194429"/>
    <path d="M401.071 208.616V187.402C401.071 187.061 400.935 186.734 400.694 186.493C400.453 186.251 400.125 186.116 399.784 186.116C399.443 186.116 399.116 186.251 398.875 186.493C398.634 186.734 398.498 187.061 398.498 187.402V208.616C398.496 208.785 398.528 208.954 398.592 209.111C398.655 209.268 398.75 209.41 398.87 209.53C398.99 209.65 399.132 209.744 399.29 209.808C399.447 209.872 399.615 209.904 399.784 209.902C400.123 209.894 400.445 209.755 400.685 209.516C400.924 209.277 401.062 208.954 401.071 208.616Z" fill="#194429"/>
    <path d="M378.882 212.473C379.541 206.418 380.562 200.407 381.937 194.473C382.339 192.866 379.847 192.143 379.445 193.75C378.004 199.891 376.956 206.118 376.31 212.393C376.308 212.562 376.339 212.73 376.403 212.887C376.467 213.044 376.562 213.187 376.682 213.307C376.802 213.427 376.944 213.521 377.101 213.585C377.258 213.649 377.427 213.681 377.596 213.679C377.926 213.687 378.246 213.566 378.487 213.34C378.728 213.114 378.87 212.803 378.882 212.473Z" fill="#194429"/>
    <path d="M365.939 217.455L377.114 187.723C377.676 186.196 375.184 185.473 374.622 187L363.447 216.732C362.884 218.259 365.376 218.982 365.939 217.455Z" fill="#194429"/>
    <path d="M405.09 183.866C407.261 190.295 409.753 196.643 411.763 203.152C411.859 203.482 412.082 203.761 412.384 203.927C412.685 204.092 413.04 204.132 413.371 204.036C413.701 203.94 413.98 203.717 414.146 203.415C414.312 203.114 414.351 202.759 414.255 202.429C412.326 195.92 409.833 189.571 407.582 183.143C407.02 181.616 404.527 182.339 405.09 183.866Z" fill="#194429"/>
    <path d="M405.412 329.152C405.251 310.348 405.653 291.464 406.618 272.741C406.859 267.437 407.18 262.134 407.582 256.83C407.663 255.143 405.09 255.143 405.01 256.83C403.723 275.58 403 294.384 402.839 313.241C402.759 318.545 402.759 324.973 402.759 330.277L405.412 329.152Z" fill="#194429"/>
    <path d="M390.057 355.75L405.573 292.75L405.653 363.705L390.057 355.75Z" fill="#194429"/>
    <path d="M405.573 362.741C407.975 364.015 410.193 365.61 412.165 367.482L405.653 351.652L405.573 362.741Z" fill="#A05744"/>
    <path d="M363.045 134.045C362.241 135.813 362.402 138.143 362.643 140.071C363.125 143.366 365.939 142.402 366.824 139.83C367.547 137.741 367.869 134.929 366.582 133.08C365.296 131.232 363.769 132.357 363.045 134.045Z" fill="#32142A"/>
    <path d="M335.551 137.661C334.896 139.601 334.758 141.678 335.149 143.688C335.631 146.982 338.445 146.018 339.329 143.447C340.053 141.357 340.374 138.545 339.088 136.696C337.802 134.848 336.274 136.054 335.551 137.661Z" fill="#32142A"/>
    <path d="M346.082 138.384C346.645 137.982 347.208 137.661 347.69 137.259C348.222 136.879 348.823 136.606 349.459 136.455C351.227 136.134 353.157 135.893 354.684 137.018C354.886 137.118 355.117 137.137 355.332 137.072C355.548 137.008 355.73 136.863 355.842 136.669C355.955 136.475 355.989 136.245 355.939 136.026C355.888 135.807 355.755 135.616 355.569 135.491C353.72 134.125 351.388 134.366 349.298 134.688C347.758 135.083 346.328 135.825 345.118 136.857C344.92 136.979 344.777 137.172 344.717 137.396C344.657 137.62 344.685 137.859 344.796 138.063C344.938 138.259 345.145 138.399 345.38 138.458C345.616 138.517 345.864 138.491 346.082 138.384Z" fill="#32142A"/>
    <path d="M346.243 120.705C345.841 121.911 374.863 110.179 388.047 107.607L393.112 143.688C396.241 138.513 400.302 133.963 405.09 130.268C405.09 130.268 407.984 92.018 381.535 92.259C381.535 92.259 356.373 91.2947 346.243 120.705Z" fill="#FAC7B7"/>
    <path d="M361.92 126.411C362.482 126.411 363.126 126.33 363.688 126.33C366.796 126.058 369.918 126.671 372.692 128.098C375.024 129.223 377.194 130.67 379.526 131.795C380.329 132.197 381.294 132.518 381.857 131.634C382.024 131.252 382.103 130.837 382.089 130.42C382.075 130.003 381.968 129.594 381.777 129.223C380.098 125.627 377.454 122.567 374.139 120.384C371.797 119.109 369.17 118.445 366.502 118.455C364.251 118.455 359.186 118.938 357.257 120.304C354.845 121.991 358.061 125.447 360.714 126.25C361.109 126.348 361.513 126.402 361.92 126.411Z" fill="#FAC7B7"/>
    <path d="M343.992 124.321C341.58 123.518 333.702 124.08 331.531 125.768C329.522 127.214 330.888 127.616 332.898 129.062C333.702 129.625 337.159 130.027 338.124 130.107C346.726 131.232 347.851 130.911 348.575 129.062C348.621 128.931 348.638 128.791 348.624 128.652C348.61 128.513 348.566 128.379 348.494 128.259C347.931 126.571 346.404 125.446 344.877 124.643C344.475 124.482 344.233 124.402 343.992 124.321Z" fill="#FAC7B7"/>
    <path d="M333.863 127.054C327.753 127.295 323.09 132.679 322.286 138.545C321.884 141.759 322.206 145.214 324.135 147.946C325.768 150.349 328.229 152.066 331.049 152.768C337.078 154.295 343.349 150.679 345.6 144.973C346.279 143.203 346.587 141.313 346.504 139.419C346.421 137.525 345.949 135.668 345.118 133.964C344.117 131.843 342.52 130.059 340.521 128.832C338.522 127.604 336.208 126.986 333.863 127.054C333.745 127.059 333.629 127.089 333.524 127.142C333.418 127.194 333.324 127.268 333.249 127.359C333.173 127.45 333.117 127.555 333.084 127.669C333.052 127.782 333.043 127.901 333.059 128.018C333.087 128.221 333.18 128.41 333.326 128.555C333.471 128.7 333.659 128.794 333.863 128.821C335.642 128.777 337.401 129.199 338.966 130.045C340.532 130.891 341.849 132.131 342.786 133.643C344.05 135.549 344.721 137.785 344.716 140.071C344.721 142.812 343.716 145.459 341.891 147.505C340.067 149.55 337.552 150.852 334.827 151.161C333.518 151.278 332.199 151.136 330.944 150.742C329.69 150.349 328.526 149.713 327.518 148.869C326.51 148.026 325.678 146.992 325.07 145.827C324.462 144.663 324.09 143.389 323.974 142.08V141.839C323.687 138.599 324.603 135.367 326.547 132.759C327.415 131.613 328.515 130.662 329.776 129.97C331.037 129.278 332.429 128.859 333.863 128.741C333.974 128.741 334.083 128.719 334.186 128.677C334.288 128.634 334.381 128.572 334.46 128.494C334.538 128.416 334.6 128.323 334.643 128.22C334.685 128.118 334.707 128.008 334.707 127.897C334.707 127.787 334.685 127.677 334.643 127.574C334.6 127.472 334.538 127.379 334.46 127.301C334.381 127.222 334.288 127.16 334.186 127.118C334.083 127.075 333.974 127.054 333.863 127.054Z" fill="#32142A"/>
    <path d="M366.1 121.589C359.99 121.83 355.327 127.214 354.524 133.08C354.122 136.295 354.443 139.75 356.373 142.482C358.005 144.885 360.467 146.601 363.286 147.304C369.316 148.83 375.586 145.214 377.837 139.509C378.514 137.752 378.821 135.875 378.738 133.994C378.655 132.114 378.184 130.27 377.355 128.58C376.349 126.458 374.752 124.67 372.756 123.43C370.76 122.19 368.45 121.551 366.1 121.589C365.845 121.614 365.61 121.737 365.445 121.932C365.28 122.127 365.198 122.379 365.216 122.634C365.244 122.837 365.337 123.026 365.482 123.171C365.628 123.316 365.816 123.41 366.02 123.437C367.798 123.393 369.558 123.815 371.123 124.661C372.689 125.507 374.006 126.747 374.943 128.259C376.171 130.181 376.839 132.407 376.872 134.687C376.878 137.428 375.872 140.075 374.048 142.121C372.224 144.167 369.709 145.468 366.984 145.777C365.675 145.894 364.355 145.752 363.101 145.358C361.847 144.965 360.683 144.329 359.675 143.486C358.667 142.642 357.835 141.608 357.227 140.444C356.619 139.279 356.247 138.005 356.131 136.696V136.455C355.844 133.215 356.76 129.983 358.704 127.375C359.572 126.229 360.672 125.278 361.933 124.586C363.194 123.894 364.586 123.475 366.02 123.357C366.136 123.362 366.252 123.345 366.361 123.305C366.47 123.266 366.571 123.205 366.657 123.127C366.742 123.048 366.812 122.954 366.861 122.849C366.911 122.743 366.939 122.629 366.944 122.513C366.949 122.397 366.932 122.281 366.892 122.172C366.853 122.063 366.792 121.962 366.713 121.877C366.635 121.791 366.541 121.721 366.435 121.672C366.33 121.623 366.216 121.595 366.1 121.589Z" fill="#32142A"/>
    <path d="M379.204 137.098C388.69 134.607 398.016 131.875 407.341 128.821C407.576 128.757 407.775 128.603 407.896 128.392C408.016 128.181 408.048 127.931 407.984 127.696C407.92 127.462 407.766 127.263 407.555 127.142C407.344 127.021 407.093 126.99 406.859 127.054C397.614 130.107 388.208 132.839 378.722 135.33C378.49 135.419 378.301 135.594 378.196 135.819C378.091 136.044 378.078 136.301 378.159 136.536C378.247 136.732 378.397 136.893 378.586 136.995C378.775 137.096 378.992 137.133 379.204 137.098Z" fill="#32142A"/>
    <path d="M349.057 117.571C347.931 112.991 358.141 110.661 358.463 114.598C358.543 115.804 357.418 116.366 356.533 115.402C355.569 114.277 356.292 112.509 356.855 111.384C357.851 109.636 359.33 108.213 361.116 107.286C362.939 106.32 365.039 106.008 367.065 106.402C367.646 106.516 368.177 106.81 368.581 107.243C368.985 107.676 369.242 108.225 369.316 108.813C369.476 109.295 370.039 112.107 368.914 110.982C368.271 110.339 368.592 108.893 368.833 108.17C369.343 106.796 370.33 105.651 371.614 104.943C372.897 104.235 374.393 104.011 375.827 104.313V102.625C374.692 102.824 373.525 102.752 372.422 102.417C371.319 102.082 370.31 101.493 369.476 100.696C367.708 98.7679 368.592 96.5983 370.682 95.5536C371.587 95.0984 372.586 94.8631 373.599 94.867C374.612 94.8708 375.609 95.1137 376.51 95.5758C377.411 96.0379 378.19 96.7061 378.784 97.5261C379.378 98.3461 379.77 99.2947 379.927 100.295C380.169 101.42 381.937 100.938 381.696 99.8125C380.571 93.9465 373.335 90.8929 368.512 94.8304C368.019 95.1931 367.603 95.6497 367.288 96.1738C366.972 96.6979 366.764 97.2792 366.674 97.8842C366.584 98.4892 366.615 99.1059 366.765 99.6989C366.915 100.292 367.181 100.849 367.547 101.339C367.627 101.5 367.788 101.58 367.869 101.741C369.878 104.152 373.175 104.875 376.229 104.473C377.114 104.313 377.033 102.946 376.229 102.705C371.567 101.5 365.537 105.839 366.824 110.982C366.937 111.502 367.193 111.979 367.562 112.362C367.931 112.745 368.399 113.019 368.914 113.152C369.178 113.216 369.452 113.228 369.72 113.186C369.989 113.144 370.246 113.049 370.478 112.907C370.71 112.766 370.911 112.579 371.07 112.359C371.23 112.139 371.344 111.889 371.406 111.625C371.542 110.313 371.348 108.987 370.843 107.768C370.634 107.156 370.296 106.595 369.852 106.124C369.409 105.653 368.869 105.282 368.271 105.036C363.045 103.027 356.694 106.884 354.684 111.705C353.72 114.036 354.122 117.732 357.337 117.893C359.749 117.973 360.633 115.321 359.829 113.393C358.543 110.42 354.604 110.741 352.031 111.545C349.137 112.429 346.404 114.839 347.208 118.214C347.304 118.444 347.485 118.629 347.713 118.73C347.941 118.832 348.199 118.842 348.434 118.761C348.67 118.679 348.865 118.51 348.981 118.289C349.097 118.068 349.124 117.812 349.057 117.571Z" fill="white"/>
    <path d="M385.073 106.321C384.831 104.071 384.349 100.857 386.68 99.4107C387.187 99.1491 387.763 99.0548 388.327 99.1414C388.89 99.2281 389.411 99.4912 389.816 99.8929C390.708 100.779 391.274 101.94 391.423 103.187C391.504 103.75 391.584 104.393 391.665 105.036C391.665 105.518 391.906 106.321 391.504 106.723C391.102 107.125 391.424 106.241 391.504 106.08C391.768 105.588 392.156 105.172 392.629 104.875C394.478 103.589 397.373 103.027 398.659 105.357C399.159 106.418 399.459 107.562 399.543 108.732C399.624 109.696 400.025 112.187 398.578 112.348C397.453 112.429 397.373 114.277 398.578 114.116C400.508 113.875 401.473 112.187 401.553 110.42C401.62 108.61 401.319 106.806 400.669 105.116C400.377 104.318 399.882 103.61 399.234 103.06C398.586 102.511 397.806 102.139 396.971 101.982C395.081 101.76 393.179 102.278 391.665 103.429C390.459 104.313 388.931 106.241 389.896 107.848C390.861 109.455 393.031 108.411 393.433 106.964C393.66 106.043 393.687 105.084 393.514 104.152C393.462 103.158 393.245 102.181 392.871 101.259C392.599 100.381 392.122 99.58 391.479 98.9232C390.836 98.2663 390.045 97.7723 389.173 97.4822C388.227 97.2332 387.227 97.303 386.325 97.6808C385.424 98.0586 384.673 98.7232 384.188 99.5714C382.902 101.58 383.063 104.071 383.384 106.321C383.384 107.446 385.233 107.446 385.073 106.321Z" fill="white"/>
    <path d="M391.584 118.697C391.504 118.295 392.067 117.973 392.388 117.973C392.625 117.948 392.865 117.979 393.088 118.063C393.312 118.146 393.512 118.281 393.674 118.455C394.229 119.083 394.64 119.823 394.88 120.625C395.202 121.509 395.523 122.795 394.961 123.598C394.801 123.843 394.562 124.025 394.283 124.113C394.005 124.201 393.704 124.189 393.433 124.08C392.388 123.357 394.398 122.393 394.961 122.313C395.925 122.152 396.971 121.911 397.533 122.875C398.417 124.681 398.91 126.652 398.98 128.661C399.117 130.581 398.926 132.51 398.418 134.366C398.181 135.305 397.858 136.219 397.453 137.098C397.212 137.661 396.569 139.268 396.086 138.143C395.609 137.201 395.441 136.133 395.604 135.089C395.936 134.211 396.561 133.473 397.372 133C399.061 131.795 400.99 130.83 402.759 129.705C403.723 129.063 402.839 127.536 401.874 128.179L397.855 130.589C396.752 131.145 395.747 131.878 394.88 132.759C393.272 134.607 393.433 137.42 394.72 139.509C394.925 139.921 395.285 140.237 395.721 140.387C396.157 140.537 396.634 140.511 397.051 140.313C398.096 139.83 398.659 138.705 399.141 137.741C400.196 135.306 400.744 132.681 400.749 130.027C400.81 127.375 400.289 124.741 399.222 122.313C399.032 121.803 398.708 121.354 398.283 121.014C397.858 120.674 397.349 120.457 396.81 120.384C395.567 120.236 394.308 120.46 393.192 121.027C391.504 121.911 390.539 124.563 392.549 125.688C394.237 126.652 396.408 125.447 396.89 123.679C397.533 121.429 396.327 117.893 394.318 116.688C392.308 115.482 389.494 116.768 389.896 119.259C389.896 120.304 391.665 119.822 391.584 118.697Z" fill="white"/>
    <path d="M404.447 120.786C404.151 120.403 403.883 120 403.643 119.58C403.413 119.181 403.25 118.747 403.161 118.295C403.029 117.852 402.975 117.39 403 116.928V115.723C403 115.803 403 115.482 403.08 115.482C403.127 115.249 403.087 115.006 402.969 114.799C402.851 114.593 402.662 114.436 402.437 114.357C402.321 114.325 402.2 114.317 402.08 114.332C401.961 114.347 401.846 114.386 401.741 114.445C401.637 114.505 401.545 114.585 401.471 114.68C401.398 114.775 401.343 114.884 401.312 115C401.075 116.236 401.11 117.509 401.416 118.731C401.721 119.952 402.289 121.092 403.08 122.071C403.259 122.226 403.487 122.311 403.724 122.311C403.96 122.311 404.188 122.226 404.367 122.071C404.516 121.894 404.604 121.673 404.618 121.442C404.633 121.21 404.573 120.98 404.447 120.786Z" fill="white"/>
    <path d="M226.137 324.893C226.539 336.143 219.304 348.116 202.743 342.732C185.218 337.027 203.869 308.5 219.786 316.134C224.208 318.223 226.057 321.438 226.137 324.893Z" fill="#FAC7B7"/>
    <path d="M15.9921 358.321C45.3353 358.482 74.7588 357.759 104.102 356.071C112.302 355.589 120.582 355.107 128.782 354.464C129.465 354.464 130.119 354.193 130.601 353.711C131.084 353.229 131.355 352.575 131.355 351.893C131.355 351.211 131.084 350.557 130.601 350.074C130.119 349.592 129.465 349.321 128.782 349.321C99.4392 351.491 70.0961 352.696 40.6725 353.098C32.3921 353.178 24.1921 353.178 15.9117 353.178C12.6157 353.178 12.6157 358.321 15.9921 358.321Z" fill="#FAC7B7"/>
    <path d="M13.1784 340.723C43.9686 341.286 74.6784 341.527 105.469 341.607H131.274C134.571 341.607 134.651 336.384 131.274 336.464C100.484 336.545 69.7209 336.384 38.9843 335.982C30.3823 335.902 21.7804 335.741 13.1784 335.58C9.80194 335.5 9.80194 340.643 13.1784 340.723Z" fill="#FAC7B7"/>
    <path d="M5.70192 324.973C39.3862 326.018 73.0437 325.857 106.674 324.491C116.08 324.089 125.567 323.607 134.973 323.045C138.269 322.804 138.269 317.661 134.973 317.902C101.369 319.991 67.7111 320.848 34 320.473C24.5137 320.393 15.1078 320.152 5.62152 319.83C2.32545 319.75 2.32545 324.893 5.70192 324.973Z" fill="#FAC7B7"/>
    <path d="M2.64704 307.214C23.549 307.75 44.4778 307.589 65.4333 306.732C68.7294 306.571 68.8098 301.428 65.4333 301.589C44.5313 302.393 23.6026 302.553 2.64704 302.071C-0.729433 301.991 -0.729433 307.134 2.64704 307.214Z" fill="#FAC7B7"/>
    <path d="M7.149 288.652H61.7353C65.0314 288.652 65.1117 283.428 61.7353 283.428H7.149C3.85292 283.509 3.85292 288.652 7.149 288.652Z" fill="#FAC7B7"/>
    <path d="M13.1784 386.286C43.9686 386.848 74.6784 387.089 105.469 387.17H131.274C134.571 387.17 134.651 381.946 131.274 382.027C100.484 382.107 69.7209 381.946 38.9843 381.545C30.3823 381.464 21.7804 381.303 13.1784 381.143C9.80194 381.062 9.80194 386.205 13.1784 386.286Z" fill="#FAC7B7"/>
    <path d="M5.70192 371.58C39.3862 372.625 73.0437 372.464 106.674 371.098C116.08 370.696 125.567 370.214 134.973 369.652C138.269 369.41 138.269 364.268 134.973 364.509C101.369 366.598 67.7111 367.455 34 367.08C24.5137 367 15.1078 366.759 5.62152 366.437C2.32545 366.277 2.32545 371.419 5.70192 371.58Z" fill="#FAC7B7"/>
    <path d="M347.449 163.536C343.59 167.473 350.424 173.259 354.363 169.723C359.267 165.464 351.71 159.196 347.449 163.536Z" fill="#32142A"/>
    <path d="M178.063 107.527C177.545 109.521 177.644 111.625 178.348 113.562C179.051 115.499 180.325 117.177 182.002 118.375C182.102 118.442 182.216 118.488 182.335 118.51C182.454 118.531 182.576 118.528 182.694 118.501C182.811 118.474 182.922 118.422 183.019 118.35C183.117 118.278 183.198 118.187 183.259 118.083C183.319 117.978 183.358 117.862 183.372 117.742C183.386 117.622 183.375 117.501 183.34 117.385C183.305 117.269 183.247 117.162 183.169 117.069C183.091 116.977 182.995 116.902 182.886 116.848C181.556 115.862 180.548 114.503 179.99 112.944C179.432 111.385 179.349 109.695 179.751 108.089C179.791 107.855 179.738 107.615 179.602 107.419C179.467 107.224 179.261 107.089 179.027 107.045C178.933 107.011 178.832 106.996 178.731 107.003C178.631 107.009 178.532 107.035 178.442 107.08C178.352 107.125 178.272 107.188 178.207 107.265C178.142 107.341 178.093 107.431 178.063 107.527Z" fill="#32142A"/>
</svg>
